<svg xmlns="http://www.w3.org/2000/svg" width="24" height="24" viewBox="0 0 24 24">
	<path fill="#004F5B" fill-rule="nonzero" d="M 20.708 5.274 C 21.26 5.274 21.708 5.722 21.708 6.274 L 21.708 17.274 C 21.708 17.826 21.26 18.274 20.708 18.274 L 2.708 18.274 C 2.156 18.274 1.708 17.826 1.708 17.274 L 1.708 6.274 C 1.708 5.722 2.156 5.274 2.708 5.274 L 20.708 5.274 Z M 14.4 13.686 L 5.17 13.686 C 4.939 13.686 4.785 13.839 4.785 14.068 L 4.785 14.833 C 4.785 15.062 4.939 15.215 5.17 15.215 L 14.4 15.215 C 14.631 15.215 14.785 15.062 14.785 14.833 L 14.785 14.068 C 14.785 13.839 14.631 13.686 14.4 13.686 Z M 9.785 10.627 L 5.17 10.627 C 4.939 10.627 4.785 10.78 4.785 11.009 L 4.785 11.774 C 4.785 12.004 4.939 12.156 5.17 12.156 L 9.785 12.156 C 10.016 12.156 10.17 12.004 10.17 11.774 L 10.17 11.009 C 10.17 10.78 10.016 10.627 9.785 10.627 Z M 19.17 6.804 L 4.246 6.804 C 3.694 6.804 3.246 7.251 3.246 7.804 L 3.246 7.804 L 3.246 8.333 L 20.17 8.333 L 20.17 7.804 C 20.17 7.251 19.722 6.804 19.17 6.804 L 19.17 6.804 Z" />
</svg>